<?xml version="1.0" encoding="UTF-8"?>
<svg width="602px" height="176px" viewBox="0 0 602 176" version="1.1" xmlns="http://www.w3.org/2000/svg" xmlns:xlink="http://www.w3.org/1999/xlink">
    <!-- Generator: Sketch 52.6 (67491) - http://www.bohemiancoding.com/sketch -->
    <title>Group</title>
    <desc>Created with Sketch.</desc>
    <g id="Welcome" stroke="none" stroke-width="1" fill="none" fill-rule="evenodd">
        <g id="Tablet-Portrait" transform="translate(-927.000000, -214.000000)">
            <g id="Group" transform="translate(931.000000, 168.000000)">
                <path d="M1.33423144,128.120364 C-0.444743813,130.403983 -0.444743813,133.604562 1.33423144,135.888182 C6.86233593,143.109091 36.2330611,179 72.1187471,179 C108.004433,179 137.375158,143.109091 142.903263,135.879636 C144.68085,133.598724 144.68085,130.401276 142.903263,128.120364 C137.375158,120.912273 108.004433,85 72.1187471,85 C36.2330611,85 6.86233593,120.912273 1.33423144,128.120364 Z" id="Shape-Copy-61" stroke="#1A1A1A" stroke-width="8" fill-rule="nonzero"></path>
                <path d="M77.1264368,70.1666667 L77.1264368,50.8333333 C77.1264368,48.1639573 75.1084097,46 72.6190476,46 C70.1296855,46 68.1116585,48.1639573 68.1116585,50.8333333 L68.1116585,70.1666667 C68.1116585,72.8360427 70.1296855,75 72.6190476,75 C75.1084097,75 77.1264368,72.8360427 77.1264368,70.1666667 Z" id="Shape-Copy-62" fill="#000000"></path>
                <path d="M49.9141135,79.85034 C48.1321394,80.3355022 46.2420749,79.6153007 45.2253505,78.0637055 L37.7687839,66.6904527 C36.4662256,64.700972 37.0117745,62.0247884 38.9873011,60.7130295 C40.9628278,59.401271 43.6202405,59.950673 44.9227988,61.9401537 L52.3793654,73.3134065 C53.1370454,74.4696741 53.2966036,75.9222495 52.8081925,77.2173343 C52.3197814,78.5124195 51.242951,79.4921094 49.9141135,79.85034 Z" id="Shape-Copy-63" fill="#000000"></path>
                <path d="M95.332254,79.8525832 C94.0012466,79.49664 92.9216564,78.5173955 92.4314227,77.2213791 C91.9411887,75.9253625 92.1002203,74.4709518 92.8587356,73.3134147 L100.315299,61.9401549 C101.617857,59.9506729 104.275269,59.4012706 106.250795,60.71303 C108.226321,62.0247897 108.771869,64.7009748 107.469312,66.6904568 L100.012748,78.0637167 C98.9977567,79.6126594 97.1121407,80.3333343 95.332254,79.8525832 Z" id="Shape-Copy-64" fill="#000000"></path>
                <path d="M68.1116585,197.833333 L68.1116585,217.166667 C68.1116585,219.836043 70.1296855,222 72.6190476,222 C75.1084097,222 77.1264368,219.836043 77.1264368,217.166667 L77.1264368,197.833333 C77.1264368,195.163957 75.1084097,193 72.6190476,193 C70.1296855,193 68.1116585,195.163957 68.1116585,197.833333 Z" id="Shape-Copy-65" fill="#000000"></path>
                <path d="M45.2254018,185.939369 C46.0680144,184.65262 47.5283986,183.916238 49.0564419,184.007612 C50.5844852,184.098986 51.9480416,185.004234 52.6334719,186.382357 C53.3189026,187.760481 53.2220743,189.40211 52.3794617,190.688859 L44.9228482,202.060176 C43.6202817,204.049318 40.9628522,204.598627 38.9873132,203.287092 C37.0117741,201.975556 36.4662218,199.299828 37.7687883,197.310686 L45.2254018,185.939369 Z" id="Shape-Copy-66" fill="#000000"></path>
                <path d="M94.0740781,184.718297 C95.0214578,184.085497 96.1799276,183.858253 97.2939105,184.0867 C98.4078934,184.315146 99.3858479,184.980509 100.012021,185.936 L107.469249,197.309438 C108.771922,199.298951 108.226325,201.975179 106.250623,203.286959 C104.274921,204.598739 101.617273,204.049328 100.314599,202.059815 L92.8573715,190.686377 C91.557771,188.699808 92.1023503,186.028587 94.0740781,184.718297 Z" id="Shape-Copy-67" fill="#000000"></path>
                <ellipse id="Oval-Copy-20" stroke="#000000" stroke-width="7.5" fill="#FFD88E" cx="72.1182266" cy="132" rx="28.045977" ry="28"></ellipse>
                <ellipse id="Oval-Copy-21" fill="#000000" cx="72.6190476" cy="131.5" rx="12.5205255" ry="12.5"></ellipse>
                <text id="thea.-copy-3" font-family="Palatino-Bold, Palatino" font-size="180" font-weight="bold" fill="#DD918E">
                    <tspan x="211.34647" y="188">thea.</tspan>
                </text>
            </g>
        </g>
    </g>
</svg>